<?xml version="1.0" encoding="iso-8859-1"?>
<!-- Uploaded to: SVG Repo, www.svgrepo.com, Generator: SVG Repo Mixer Tools -->
<svg height="800px" width="800px" version="1.1" id="Layer_1" xmlns="http://www.w3.org/2000/svg" xmlns:xlink="http://www.w3.org/1999/xlink" 
	 viewBox="0 0 511.998 511.998" xml:space="preserve">
<g>
	<polygon style="fill:#ED8C18;" points="297.896,311.682 294.55,266.541 323.794,231.987 279.826,221.225 277.29,217.137 
		255.998,182.734 232.176,221.225 188.208,231.987 217.451,266.541 214.1,311.682 255.998,294.549 286.636,307.078 	"/>
	<path style="fill:#ABB8B9;" d="M135.075,131.695c10.64-18.425,9.915-40.283,0.009-57.482c-19.85,0.019-39.146,10.32-49.782,28.743
		c-10.636,18.425-9.91,40.283,0,57.479C105.147,160.422,124.439,150.119,135.075,131.695z"/>
	<path style="fill:#657694;" d="M59.659,169.886c-9.073-15.714-25.527-24.499-42.457-24.517c-8.45,14.668-9.069,33.314,0.002,49.031
		c9.073,15.712,25.531,24.499,42.46,24.513C68.116,204.245,68.732,185.603,59.659,169.886z"/>
	<path style="fill:#ABB8B9;" d="M130.282,251.941c-15.914-5.776-34.381-3.15-48.284,8.515
		c-13.901,11.664-19.696,29.396-16.771,46.07c15.914,5.778,34.381,3.145,48.28-8.516
		C127.408,286.344,133.208,268.614,130.282,251.941z"/>
	<path style="fill:#657694;" d="M97.564,385.563c-5.803-15.905-19.69-28.359-37.558-31.509
		c-17.871-3.152-35.179,3.802-46.071,16.763c5.803,15.9,19.69,28.36,37.558,31.512C69.366,405.48,86.672,398.522,97.564,385.563z"/>
	<path style="fill:#ABB8B9;" d="M451.995,354.053c-17.873,3.15-31.76,15.606-37.563,31.509
		c10.892,12.959,28.203,19.918,46.071,16.766c17.871-3.152,31.757-15.61,37.56-31.512
		C487.173,357.859,469.862,350.903,451.995,354.053z"/>
	<path style="fill:#657694;" d="M398.487,298.009c13.901,11.664,32.372,14.294,48.28,8.516c2.928-16.674-2.87-34.406-16.769-46.068
		c-13.899-11.667-32.37-14.292-48.284-8.519C378.79,268.614,384.588,286.344,398.487,298.009z"/>
	<path style="fill:#ABB8B9;" d="M452.333,218.913c16.929-0.015,33.387-8.801,42.46-24.513c9.071-15.717,8.45-34.363,0.004-49.029
		c-16.931,0.013-33.387,8.801-42.46,24.515C443.264,185.601,443.881,204.247,452.333,218.913z"/>
	<path style="fill:#657694;" d="M426.696,160.437c9.91-17.196,10.636-39.054,0-57.479c-10.636-18.423-29.932-28.726-49.777-28.743
		c-9.91,17.199-10.63,39.057,0.004,57.479C387.558,150.116,406.849,160.42,426.696,160.437z"/>
</g>
<g>
	<path style="fill:#000003;" d="M164.344,426.291c-41.268-23.825-71.546-62.097-85.952-106.267c1.209,0.073,2.421,0.123,3.64,0.123
		c13.988,0,27.604-4.959,38.334-13.965c16.272-13.654,24.099-35.146,20.425-56.085c-0.66-3.761-3.28-6.883-6.87-8.185
		c-6.568-2.383-13.447-3.592-20.444-3.592c-13.992,0-27.606,4.959-38.338,13.964c-2.192,1.84-4.226,3.826-6.104,5.931
		c0.468-30.512,8.271-60.56,22.718-87.425c21.776-2.1,41.52-14.633,52.56-33.759c12.128-20.998,12.132-47.108,0.011-68.143
		c-1.904-3.305-5.431-5.342-9.244-5.342c-0.004,0-0.006,0-0.011,0c-24.268,0.021-46.879,13.078-59.009,34.079
		c-11.08,19.198-12.026,42.661-2.851,62.613c-1.117,2.066-2.201,4.147-3.247,6.246c-0.341-0.649-0.696-1.293-1.063-1.931
		c-10.621-18.393-30.426-29.832-51.686-29.851c-0.004,0-0.006,0-0.011,0c-3.813,0-7.339,2.037-9.244,5.342
		c-10.615,18.423-10.612,41.295,0.006,59.689c9.019,15.621,24.661,26.22,42.193,29.074c-1.648,10.667-2.509,21.47-2.509,32.322
		c0,28.939,5.984,57.112,17.025,82.993c-0.931-0.211-1.869-0.409-2.816-0.575c-3.445-0.607-6.952-0.915-10.423-0.915
		c-17.635,0-34.281,7.771-45.669,21.321c-2.457,2.922-3.163,6.935-1.854,10.522c7.289,19.974,24.812,34.673,45.729,38.362
		c3.443,0.607,6.95,0.915,10.419,0.915c14.399,0,28.133-5.185,38.89-14.461c15.354,17.905,33.758,33.375,54.725,45.48
		c1.681,0.97,3.515,1.432,5.324,1.432c3.688,0,7.274-1.914,9.25-5.337C171.195,435.762,169.447,429.237,164.344,426.291z
		 M26.445,189.063c-5.728-9.922-6.648-21.874-2.757-32.463c11.113,1.927,21.003,8.698,26.733,18.621
		c5.728,9.923,6.647,21.875,2.759,32.462C42.064,205.758,32.173,198.986,26.445,189.063z M60.06,392.413
		c-2.232,0-4.491-0.2-6.714-0.591c-11.286-1.99-21.036-8.973-26.646-18.763c6.876-5.836,15.601-9.09,24.735-9.09
		c2.234,0,4.495,0.198,6.718,0.591c11.286,1.99,21.034,8.971,26.646,18.759C77.921,389.157,69.195,392.413,60.06,392.413z
		 M88.856,268.628c6.893-5.785,15.637-8.972,24.62-8.972c2.317,0,4.611,0.206,6.87,0.613c0.035,11.28-4.917,22.199-13.697,29.565
		c-6.895,5.786-15.637,8.973-24.618,8.973c-2.317,0-4.611-0.205-6.87-0.613C75.126,286.913,80.079,275.994,88.856,268.628z
		 M94.539,108.293c7.25-12.552,19.954-20.973,34.12-22.96c5.365,13.264,4.423,28.475-2.823,41.026
		c-7.247,12.551-19.948,20.971-34.116,22.957C86.356,136.056,87.295,120.844,94.539,108.293z"/>
	<path style="fill:#000003;" d="M460.566,342.631c-3.474,0-6.981,0.308-10.424,0.915c-0.948,0.168-1.888,0.365-2.822,0.576
		c11.04-25.881,17.027-54.056,17.027-82.995c0-10.851-0.863-21.656-2.51-32.322c17.534-2.854,33.176-13.453,42.195-29.074
		c10.619-18.397,10.623-41.268,0.009-59.689c-1.904-3.306-5.431-5.342-9.244-5.342c-0.004,0-0.006,0-0.011,0
		c-21.263,0.019-41.069,11.457-51.688,29.851c-0.369,0.638-0.721,1.283-1.063,1.931c-1.046-2.098-2.13-4.179-3.247-6.244
		c9.175-19.954,8.229-43.419-2.853-62.617c-12.123-21-34.735-34.058-59.007-34.079c-0.004,0-0.006,0-0.011,0
		c-3.813,0-7.339,2.037-9.244,5.342c-12.117,21.029-12.115,47.139,0.009,68.141c11.04,19.126,30.783,31.66,52.56,33.76
		c14.447,26.865,22.248,56.911,22.72,87.425c-1.88-2.104-3.913-4.089-6.106-5.93c-10.73-9.005-24.345-13.964-38.336-13.964
		c-7,0-13.878,1.209-20.446,3.592c-3.59,1.303-6.209,4.424-6.869,8.185c-3.676,20.938,4.151,42.43,20.424,56.085
		c10.732,9.005,24.345,13.964,38.338,13.965h0.002c1.217,0,2.427-0.05,3.636-0.123c-14.41,44.17-44.685,82.442-85.953,106.267
		c-5.103,2.946-6.852,9.471-3.905,14.574c1.976,3.423,5.562,5.337,9.248,5.337c1.811,0,3.645-0.462,5.326-1.432
		c20.967-12.105,39.371-27.576,54.723-45.48c10.757,9.276,24.493,14.46,38.89,14.461h0.002c3.47,0,6.974-0.308,10.419-0.915
		c20.917-3.688,38.44-18.387,45.731-38.362c1.309-3.587,0.602-7.6-1.854-10.523C494.844,350.402,478.199,342.631,460.566,342.631z
		 M461.576,175.221c5.728-9.921,15.621-16.694,26.736-18.621c3.889,10.588,2.969,22.539-2.759,32.463
		c-5.73,9.922-15.623,16.695-26.737,18.62C454.927,197.095,455.848,185.143,461.576,175.221z M386.162,126.36
		c-7.245-12.553-8.187-27.765-2.824-41.026c14.167,1.986,26.871,10.407,34.116,22.958c7.247,12.552,8.187,27.763,2.824,41.026
		C406.11,147.331,393.407,138.91,386.162,126.36z M429.967,298.809c-8.983-0.001-17.727-3.187-24.622-8.973
		c-8.78-7.368-13.732-18.286-13.697-29.565c2.259-0.408,4.556-0.613,6.872-0.613c8.981,0,17.727,3.186,24.62,8.972
		c8.777,7.366,13.728,18.286,13.693,29.567c-2.257,0.408-4.549,0.612-6.864,0.612H429.967z M458.651,391.822
		c-2.223,0.392-4.482,0.591-6.714,0.591c0,0,0,0-0.002,0c-9.133-0.001-17.86-3.256-24.736-9.093
		c5.612-9.789,15.361-16.771,26.649-18.759c2.223-0.393,4.484-0.591,6.718-0.591c9.132,0,17.856,3.254,24.733,9.09
		C479.687,382.85,469.936,389.832,458.651,391.822z"/>
	<path style="fill:#000003;" d="M326.332,221.625l-34.439-8.432l21.091-36.532c2.947-5.103,1.198-11.628-3.905-14.574
		s-11.627-1.198-14.574,3.905l-17.527,30.361l-10.311-16.652V125.09c0-5.893-4.777-10.669-10.669-10.669
		c-5.894,0-10.669,4.777-10.669,10.669v54.611l-19.93,32.198l-39.729,9.727c-3.588,0.879-6.469,3.553-7.61,7.066
		c-1.142,3.514-0.383,7.369,2.003,10.19l26.427,31.223l-3.028,40.792c-0.221,2.959,0.819,5.826,2.778,7.972l-8.085,14.004
		c-2.947,5.103-1.198,11.627,3.905,14.574c1.681,0.97,3.515,1.431,5.324,1.431c3.688,0,7.274-1.914,9.25-5.337l16.087-27.864
		c0.019-0.032,0.033-0.067,0.05-0.099l23.228-9.5l23.224,9.499l31.999,55.429c1.978,3.423,5.564,5.337,9.25,5.337
		c1.811,0,3.645-0.462,5.324-1.432c5.103-2.946,6.854-9.471,3.907-14.574l-23.94-41.469c1.957-2.146,2.995-5.012,2.776-7.97
		l-3.028-40.791l26.428-31.223c2.388-2.821,3.146-6.675,2.005-10.19C332.8,225.176,329.92,222.504,326.332,221.625z M255.998,283.88
		c-1.371,0-2.744,0.265-4.038,0.794l-25.943,10.61l2.075-27.953c0.206-2.789-0.689-5.548-2.497-7.683l-18.111-21.397l27.227-6.667
		c2.717-0.665,5.064-2.37,6.535-4.748L256,203.004l12.173,19.666c0.021,0.035,0.044,0.069,0.065,0.105l2.515,4.064
		c1.473,2.378,3.819,4.082,6.535,4.747l27.227,6.666l-18.113,21.397c-1.806,2.135-2.705,4.894-2.497,7.684l2.075,27.953
		l-25.945-10.611C258.742,284.144,257.371,283.88,255.998,283.88z"/>
	<path style="fill:#000003;" d="M193.088,166.388c1.976,3.423,5.562,5.336,9.25,5.336c1.808,0,3.645-0.461,5.324-1.431
		c5.103-2.946,6.852-9.471,3.905-14.574l-10.792-18.692c-2.947-5.103-9.471-6.852-14.574-3.905
		c-5.103,2.946-6.852,9.471-3.905,14.574L193.088,166.388z"/>
	<path style="fill:#000003;" d="M256.004,426.841c-5.893,0-10.669,4.777-10.669,10.669v0.276c0,5.893,4.777,10.669,10.669,10.669
		c5.89,0,10.669-4.777,10.669-10.669v-0.276C266.673,431.617,261.894,426.841,256.004,426.841z"/>
	<path style="fill:#000003;" d="M255.998,415.01c5.893,0,10.669-4.777,10.669-10.669v-50.684c0-5.893-4.777-10.669-10.669-10.669
		c-5.894,0-10.669,4.777-10.669,10.669v50.684C245.329,410.233,250.104,415.01,255.998,415.01z"/>
	<path style="fill:#000003;" d="M196.199,357.723c-5.083-2.976-11.62-1.265-14.595,3.821l-0.14,0.239
		c-2.978,5.086-1.267,11.621,3.82,14.596c1.694,0.991,3.546,1.463,5.378,1.463c3.666,0,7.233-1.891,9.219-5.282l0.14-0.239
		C202.996,367.234,201.286,360.699,196.199,357.723z"/>
	<path style="fill:#000003;" d="M314.942,151.814c1.692,0.988,3.542,1.457,5.37,1.457c3.668,0,7.239-1.894,9.223-5.291l0.14-0.24
		c2.971-5.089,1.255-11.622-3.834-14.593c-5.086-2.97-11.621-1.256-14.593,3.834l-0.14,0.239
		C308.136,142.309,309.853,148.843,314.942,151.814z"/>
	<path style="fill:#000003;" d="M149.878,180.424l-0.244-0.139c-5.12-2.92-11.634-1.141-14.554,3.976
		c-2.921,5.118-1.142,11.634,3.975,14.556l0.242,0.139c1.669,0.953,3.487,1.404,5.28,1.404c3.705,0,7.308-1.933,9.275-5.381
		C156.775,189.861,154.996,183.345,149.878,180.424z"/>
	<path style="fill:#000003;" d="M158.24,298.143l-19.233,11.106c-5.103,2.947-6.852,9.472-3.905,14.574
		c1.977,3.423,5.562,5.337,9.25,5.337c1.811,0,3.645-0.462,5.324-1.432l19.235-11.106c5.103-2.947,6.852-9.472,3.905-14.575
		S163.345,295.197,158.24,298.143z"/>
	<path style="fill:#000003;" d="M367.42,200.36c1.813,0,3.651-0.463,5.332-1.435l0.24-0.139c5.101-2.95,6.843-9.476,3.894-14.577
		c-2.951-5.102-9.477-6.844-14.576-3.895l-0.24,0.139c-5.101,2.95-6.845,9.476-3.896,14.577
		C360.152,198.45,363.736,200.36,367.42,200.36z"/>
	<path style="fill:#000003;" d="M350.34,320.754l12.003,6.931c1.679,0.971,3.515,1.432,5.324,1.432c3.688,0,7.274-1.913,9.25-5.336
		c2.947-5.103,1.198-11.627-3.905-14.574l-12.003-6.931c-5.103-2.948-11.627-1.199-14.574,3.904
		C343.488,311.282,345.236,317.807,350.34,320.754z"/>
</g>
</svg>