<?xml version="1.0" ?>
<!-- Uploaded to: SVG Repo, www.svgrepo.com, Generator: SVG Repo Mixer Tools -->
<svg width="800px" height="800px" viewBox="0 0 64 64" xmlns="http://www.w3.org/2000/svg">
<g id="a"/>
<g id="b"/>
<g id="c"/>
<g id="d"/>
<g id="e"/>
<g id="f"/>
<g id="g"/>
<g id="h">
<path d="M59,35.3l-27.03-2.27-26.97,2.27v13.25c0,1.38,1.11,2.48,2.48,2.48H56.52c1.37,0,2.48-1.11,2.48-2.48v-13.25Z" fill="#f0f3f5" fill-rule="evenodd"/>
<path d="M7.48,23.29c-1.37,0-2.48,1.1-2.48,2.48v9.53H59v-9.53c0-1.38-1.11-2.48-2.48-2.48H7.48Z" fill="#f5e680" fill-rule="evenodd"/>
<path d="M33.19,13.68l1.71,3.26,3.63,.62c1.07,.18,1.49,1.49,.73,2.26l-2.58,2.64,.53,3.65c.16,1.07-.95,1.87-1.92,1.4l-3.3-1.64-3.3,1.64c-.97,.48-2.08-.33-1.92-1.4l.53-3.65-2.58-2.64c-.76-.77-.33-2.07,.73-2.26l3.63-.62,1.71-3.26c.5-.96,1.87-.96,2.37,0Z" fill="#ebb680" fill-rule="evenodd"/>
<path d="M17.96,19.88l1.37,2.61,2.9,.5c.75,.13,1.04,1.04,.51,1.58l-2.06,2.11,.43,2.91c.11,.75-.67,1.31-1.35,.98l-2.64-1.31-2.64,1.31c-.68,.34-1.45-.23-1.35-.98l.43-2.91-2.06-2.11c-.53-.54-.23-1.45,.51-1.58l2.9-.5,1.37-2.61c.35-.67,1.31-.67,1.66,0Z" fill="#ebb680" fill-rule="evenodd"/>
<path d="M47.7,19.88l1.37,2.61,2.9,.5c.75,.13,1.04,1.04,.51,1.58l-2.06,2.11,.43,2.91c.11,.75-.67,1.31-1.35,.98l-2.64-1.31-2.64,1.31c-.68,.34-1.45-.23-1.35-.98l.43-2.91-2.06-2.11c-.53-.54-.23-1.45,.51-1.58l2.9-.5,1.37-2.61c.35-.67,1.31-.67,1.66,0Z" fill="#ebb680" fill-rule="evenodd"/>
<path d="M46.87,19.38c-.35,0-.67,.19-.83,.5l-.02,.03,1.35,2.58,2.9,.49c.75,.13,1.05,1.04,.51,1.58l-2.06,2.11,.43,2.92c.03,.25-.04,.51-.2,.71l.55,.27c.68,.34,1.45-.23,1.35-.98l-.43-2.92,2.06-2.11c.53-.54,.23-1.46-.51-1.58l-2.9-.49-1.37-2.61c-.16-.31-.48-.5-.83-.5h0Zm-29.74,0c-.35,0-.67,.19-.83,.5l-.02,.03,1.35,2.58,2.9,.49c.75,.13,1.04,1.04,.51,1.58l-2.06,2.11,.43,2.92c.03,.25-.04,.51-.2,.71l.55,.27c.68,.33,1.45-.23,1.34-.98l-.43-2.92,2.06-2.11c.53-.54,.23-1.46-.51-1.58l-2.9-.49-1.37-2.61c-.16-.31-.48-.5-.83-.5h0Zm14.66-6.39c-.23,.04-.45,.15-.63,.3,.14,.11,.25,.25,.33,.4l1.71,3.27,3.64,.62c1.06,.18,1.49,1.48,.73,2.26l-2.58,2.64,.54,3.65c.07,.48-.13,.96-.51,1.26l.29,.14c.97,.48,2.08-.33,1.92-1.4l-.54-3.65,2.58-2.64c.75-.77,.33-2.07-.73-2.26l-3.63-.62-1.71-3.27c-.27-.51-.83-.79-1.39-.7Z" fill="#e6a361" fill-rule="evenodd"/>
<path d="M56.27,35.07v13.48c0,1.38-1.11,2.48-2.48,2.48h2.73c1.37,0,2.48-1.11,2.48-2.48v-13.25l-2.73-.23Z" fill="#e4ecf0" fill-rule="evenodd"/>
<path d="M53.79,23.29c1.38,0,2.48,1.1,2.48,2.48v9.53h2.73v-9.53c0-1.38-1.11-2.48-2.48-2.48h-2.73Z" fill="#f2d865" fill-rule="evenodd"/>
<path d="M56.52,22.29h-3.65c-.22-.14-.46-.25-.73-.3l-2.41-.41-1.14-2.17c-.34-.64-.99-1.04-1.72-1.04s-1.38,.4-1.72,1.04l-1.14,2.17-2.41,.41c-.27,.05-.51,.16-.73,.3h-2.62l1.73-1.77c.43-.44,.67-1.02,.67-1.63,0-1.14-.82-2.11-1.95-2.31l-3.15-.54-1.48-2.83h0c-.41-.77-1.2-1.25-2.07-1.25s-1.67,.48-2.07,1.25l-1.48,2.83-3.15,.54c-1.13,.19-1.95,1.16-1.95,2.31,0,.61,.24,1.19,.67,1.64l1.73,1.77h-2.62c-.22-.14-.46-.25-.73-.3l-2.42-.41-1.14-2.17h0c-.34-.64-.99-1.04-1.72-1.04s-1.38,.4-1.72,1.04l-1.14,2.17-2.41,.41c-.27,.05-.51,.16-.73,.3h-3.65c-1.92,0-3.48,1.56-3.48,3.48v22.77c0,1.92,1.56,3.48,3.48,3.48H56.52c1.92,0,3.48-1.56,3.48-3.48V25.78c0-1.92-1.56-3.48-3.48-3.48Zm-11.68,1.18c.31-.05,.57-.25,.72-.52l1.29-2.54,1.33,2.54c.14,.28,.41,.47,.72,.52l2.79,.48-1.98,2.02c-.22,.22-.32,.54-.27,.84l.41,2.8-2.54-1.25c-.28-.14-.61-.14-.89,0l-2.53,1.25,.41-2.8c.04-.31-.06-.62-.27-.84l-1.98-2.02,2.79-.48Zm-19.49-4.58c0-.16,.12-.31,.28-.33l3.63-.62c.31-.05,.57-.25,.72-.52l1.71-3.26c.12-.22,.49-.22,.6,0l1.71,3.26c.14,.28,.41,.47,.72,.52l3.63,.62c.16,.03,.28,.17,.28,.33,0,.09-.03,.17-.1,.24l-2.58,2.64c-.22,.22-.32,.53-.27,.84l.54,3.7c0,.23-.28,.41-.49,.3l-3.3-1.64c-.14-.07-.29-.1-.44-.1s-.3,.03-.44,.1l-3.3,1.63c-.22,.11-.5-.06-.49-.35l.53-3.65c.05-.31-.06-.62-.27-.84l-2.58-2.64c-.06-.06-.1-.15-.1-.24Zm-10.25,4.58c.31-.05,.57-.25,.72-.52l1.29-2.54,1.33,2.54c.15,.28,.41,.47,.72,.52l2.79,.48-1.98,2.02c-.22,.22-.32,.54-.27,.84l.41,2.8-2.53-1.25c-.14-.07-.29-.1-.44-.1s-.3,.03-.44,.1l-2.53,1.25,.41-2.8c.05-.31-.06-.62-.27-.84l-1.98-2.02,2.79-.48Zm-7.62,.82h2.84c.07,.36,.21,.7,.48,.97l1.71,1.75-.36,2.44c-.01,.09-.02,.17-.02,.26,0,1.07,.87,1.94,1.94,1.94,.3,0,.6-.07,.86-.2l2.2-1.09,2.19,1.09c.27,.13,.56,.2,.86,.2,1.07,0,1.94-.87,1.94-1.94,0-.22,0-.19-.38-2.71l1.71-1.75c.26-.27,.4-.61,.48-.97h2.09l-.24,1.67c-.02,.11-.03,.23-.03,.35,0,1.29,1.05,2.34,2.34,2.34,.35,0,.71-.08,1.04-.24l2.86-1.42,2.86,1.42c.32,.16,.68,.24,1.04,.24,1.29,0,2.34-1.05,2.34-2.34,0-.12,0-.24-.03-.34l-.24-1.67h2.09c.07,.36,.21,.7,.48,.97l1.71,1.75-.35,2.42c-.18,1.15,.72,2.22,1.92,2.22,.3,0,.59-.07,.86-.2l2.2-1.09,2.19,1.08c.27,.13,.56,.2,.86,.2,1.07,0,1.94-.87,1.94-1.94,0-.09,0-.18-.02-.28l-.36-2.42,1.71-1.75c.26-.27,.4-.61,.48-.97h2.84c.82,0,1.48,.67,1.48,1.48v8.52H6v-8.52c0-.82,.66-1.48,1.48-1.48Zm49.04,25.74H7.48c-.82,0-1.48-.67-1.48-1.48v-12.25H58v12.25c0,.82-.67,1.48-1.48,1.48Z"/>
<path d="M11.34,42.92c-.28,0-.51-.23-.51-.51s.23-.51,.51-.51c.18,0,.3,.09,.36,.15,.39,.39,1.02,.39,1.41,0,.39-.39,.39-1.02,0-1.41-.22-.22-.49-.39-.77-.52v-.17c0-.55-.45-1-1-1s-1,.45-1,1v.17c-.88,.39-1.51,1.27-1.51,2.29,0,1.38,1.12,2.51,2.51,2.51,.28,0,.51,.23,.51,.51,0,.42-.57,.65-.86,.36-.39-.39-1.02-.39-1.41,0-.39,.39-.39,1.02,0,1.41,.22,.22,.49,.39,.77,.52v.17c0,.55,.45,1,1,1s1-.45,1-1v-.17c.88-.39,1.51-1.27,1.51-2.29,0-1.38-1.12-2.51-2.51-2.51Z"/>
<path d="M18.69,39.83c-.55,0-1,.45-1,1v6c0,.55,.45,1,1,1s1-.45,1-1v-6c0-.55-.45-1-1-1Z"/>
<path d="M23.15,39.38c-1.49,0-2.71,1.21-2.71,2.71v3.04c0,1.49,1.21,2.71,2.71,2.71s2.71-1.21,2.71-2.71v-3.04c0-1.49-1.21-2.71-2.71-2.71Zm.71,5.75c0,.4-.31,.71-.71,.71s-.71-.31-.71-.71v-3.04c0-.4,.31-.71,.71-.71s.71,.31,.71,.71v3.04Z"/>
<path d="M39.91,39.38c-1.49,0-2.71,1.21-2.71,2.71v3.04c0,1.49,1.21,2.71,2.71,2.71s2.71-1.21,2.71-2.71v-3.04c0-1.49-1.21-2.71-2.71-2.71Zm.71,5.75c0,.4-.31,.71-.71,.71s-.71-.31-.71-.71v-3.04c0-.4,.31-.71,.71-.71s.71,.31,.71,.71v3.04Z"/>
<path d="M46.07,39.38c-1.49,0-2.71,1.21-2.71,2.71v3.04c0,1.49,1.21,2.71,2.71,2.71s2.71-1.21,2.71-2.71v-3.04c0-1.49-1.21-2.71-2.71-2.71Zm.71,5.75c0,.39-.32,.71-.71,.71s-.71-.31-.71-.71v-3.04c0-.4,.31-.71,.71-.71s.71,.32,.71,.71v3.04Z"/>
<path d="M52.24,39.38c-1.49,0-2.71,1.21-2.71,2.71v3.04c0,1.49,1.21,2.71,2.71,2.71s2.71-1.21,2.71-2.71v-3.04c0-1.49-1.21-2.71-2.71-2.71Zm.71,5.75c0,.39-.32,.71-.71,.71s-.71-.31-.71-.71v-3.04c0-.4,.31-.71,.71-.71s.71,.32,.71,.71v3.04Z"/>
<path d="M29.31,39.38c-1.49,0-2.71,1.21-2.71,2.71v3.04c0,1.49,1.21,2.71,2.71,2.71s2.71-1.21,2.71-2.71v-3.04c0-1.49-1.21-2.71-2.71-2.71Zm.71,5.75c0,.4-.31,.71-.71,.71s-.71-.32-.71-.71v-3.04c0-.39,.32-.71,.71-.71s.71,.31,.71,.71v3.04Z"/>
<path d="M34.61,45.78c-.46,0-.84,.38-.84,.84s.38,.84,.84,.84,.84-.38,.84-.84-.38-.84-.84-.84Z"/>
<path d="M26.13,32.64h11.74c.55,0,1-.45,1-1s-.45-1-1-1h-11.74c-.55,0-1,.45-1,1s.45,1,1,1Z"/>
</g>
<g id="i"/>
<g id="j"/>
<g id="k"/>
<g id="l"/>
<g id="m"/>
<g id="n"/>
<g id="o"/>
<g id="p"/>
<g id="q"/>
<g id="r"/>
<g id="s"/>
<g id="t"/>
<g id="u"/>
<g id="v"/>
<g id="w"/>
<g id="x"/>
<g id="y"/>
<g id="a`"/>
<g id="aa"/>
<g id="ab"/>
<g id="ac"/>
<g id="ad"/>
<g id="ae"/>
<g id="af"/>
<g id="ag"/>
<g id="ah"/>
<g id="ai"/>
<g id="aj"/>
<g id="ak"/>
<g id="al"/>
<g id="am"/>
<g id="an"/>
<g id="ao"/>
<g id="ap"/>
<g id="aq"/>
<g id="ar"/>
<g id="as"/>
<g id="at"/>
<g id="au"/>
<g id="av"/>
<g id="aw"/>
<g id="ax"/>
</svg>